PathFileType	4	(X/Y/Z)	Walk2.trc
DataRate	CameraRate	NumFrames	NumMarkers	Units	OrigDataRate	OrigDataStartFrame	OrigNumFrames
200.000000	200.000000	7	61	mm	200.000000	384	450
Frame#	Times		LFHD		RFHD		CLAV		STRN		LASI		RASI		RACR1		RUA1		RWRU		RCAR		LACR1		LUA1		LFA1		LWRU		LCAR		RTH3		RTH2		RTB1		LTH1		LTH3		LTH2		LTH4		LLFC		LTB1		LTB3		LTB2		LTB4		LToe		RTB4		RWRR		LBHD		RLFC		RMFC		RTB3		RMT5		RToe		RFA1		LWRR		LElbow		RTH4		RMT1		RTB2		RMMAL		LMFC		LPSI		RTH1		RElbow		LElbowM		LMT5		RBHD		RBack		RPSI		RLMAL		RCAL		C7		T10		LMMAL		LMT1		RElbowM		LCAL		LLMAL
			X1	Y1	Z1	X2	Y2	Z2	X3	Y3	Z3	X4	Y4	Z4	X5	Y5	Z5	X6	Y6	Z6	X7	Y7	Z7	X8	Y8	Z8	X9	Y9	Z9	X10	Y10	Z10	X11	Y11	Z11	X12	Y12	Z12	X13	Y13	Z13	X14	Y14	Z14	X15	Y15	Z15	X16	Y16	Z16	X17	Y17	Z17	X18	Y18	Z18	X19	Y19	Z19	X20	Y20	Z20	X21	Y21	Z21	X22	Y22	Z22	X23	Y23	Z23	X24	Y24	Z24	X25	Y25	Z25	X26	Y26	Z26	X27	Y27	Z27	X28	Y28	Z28	X29	Y29	Z29	X30	Y30	Z30	X31	Y31	Z31	X32	Y32	Z32	X33	Y33	Z33	X34	Y34	Z34	X35	Y35	Z35	X36	Y36	Z36	X37	Y37	Z37	X38	Y38	Z38	X39	Y39	Z39	X40	Y40	Z40	X41	Y41	Z41	X42	Y42	Z42	X43	Y43	Z43	X44	Y44	Z44	X45	Y45	Z45	X46	Y46	Z46	X47	Y47	Z47	X48	Y48	Z48	X49	Y49	Z49	X50	Y50	Z50	X51	Y51	Z51	X52	Y52	Z52	X53	Y53	Z53	X54	Y54	Z54	X55	Y55	Z55	X56	Y56	Z56	X57	Y57	Z57	X58	Y58	Z58	X59	Y59	Z59	X60	Y60	Z60	X61	Y61	Z61

384	1.92	1180.4	1560.2	-92.306	1180.4	1565.8	6.9878	1126.6	1295.5	-30.733	1150.9	1162.7	-24.834	1114.4	899.25	-133.83	1109.8	892.05	114.84	1056.7	1341	134.41	1063	1173.2	191.4	1228.7	809.3	201.82	1241	743.11	250.05	1041.7	1342.8	-180.72	1000.6	1173.8	-243.1	922.74	899.09	-298.68	947.15	776.39	-308.99	894.26	725.78	-338.84	1035.3	551.39	149.44	1094	636.36	136.08	931.76	310.83	98.832	1095.5	732.72	-203.37	1144	572.61	-161.45	1173	673.67	-168.61	1119.4	651.38	-184.67	1187	441.29	-134.98	1222.4	345.35	-63.206	1205.9	175.96	-48.173	1204.3	256.2	-117.1	1211.6	259.86	-56.493	1346.2	28.794	-40.02	857.38	265.89	93.099	1178.6	782.83	239.36	1031	1510.8	-111.99	1001.5	403.73	128.35	982.54	402.42	-0.10787	782.56	224.08	85.044	647.87	93.663	100.85	695	31.823	55.699	1144.5	897.2	243.02	881.36	787.13	-288.36	941.49	1028.7	-261.25	1042.6	633.51	162.89	675.99	75.064	21.777	831.26	306.08	132.7	684.58	208.61	22.364	1161.5	433.49	-5.3429	935.9	945.93	-59.52	1053.7	718.61	180.66	1064.3	1006.6	229.27	939.28	1007.5	-189.59	1261.6	23.625	-100.08	1034.3	1525.1	32.824	937.52	1275.9	50.115	938.02	937.89	40.623	660.63	212.91	101.07	623.95	250.43	59.172	1013.4	1398.8	-33.35	940.99	1186.3	-15.086	1162.3	83.499	-11.583	1290.3	29.818	-16.249	1030.4	996.76	157.24	1098.2	35.468	-53.85	1156.6	63.071	-93.277
385	1.925	1188.4	1560.7	-92.675	1188.5	1566.6	6.5872	1134.1	1296.5	-30.598	1158.1	1163.7	-24.724	1121.8	900.58	-134.55	1117.3	893.13	114.36	1064.1	1342.1	134.4	1070.4	1174.2	191.13	1232.6	807.59	202.15	1243.8	741.59	250.84	1049.5	1344	-180.69	1010.1	1174.6	-243.38	935.95	899.11	-300.37	962.21	776.94	-310.97	910.25	726	-341.68	1048.6	551.65	149.16	1105.7	637.72	135.43	946.89	311.22	98.042	1102.1	733.53	-203.75	1148.9	572.91	-161.91	1179	673.63	-169.17	1125.1	651.93	-185.05	1190.7	440.94	-135.5	1225.4	344.74	-63.797	1207	175.53	-48.497	1206	255.71	-117.5	1213.6	259.35	-56.938	1346.3	28.521	-40.065	871.9	267.23	92.32	1182	782.09	239.78	1039	1511.8	-112.26	1017.1	403.66	128.11	998.97	401.81	-0.78101	796.49	226.38	84.341	661.4	97.897	101.42	708.12	34.176	57.517	1149.7	897.07	242.95	896.16	786.55	-290.66	952.59	1029	-262.44	1054.4	633.84	162.41	689.81	78.222	22.832	846.43	307.48	132.36	698.32	212.05	21.829	1165.6	433.51	-5.7928	943.31	946.79	-59.555	1063.9	719.26	180	1071	1007.5	228.72	950.22	1007.6	-190.75	1261.5	23.661	-100.32	1042.3	1526.6	32.589	944.85	1277.1	50.108	945.44	938.67	40.5	674.33	216.79	100.48	637.58	254.25	58.309	1020.9	1399.9	-33.331	948.31	1187.4	-15.213	1162.5	83.541	-11.667	1290.2	29.801	-16.308	1037.6	997.88	156.37	1098.2	35.484	-53.949	1156.6	62.999	-93.403
386	1.93	1196.5	1561.2	-93.012	1196.7	1567.5	6.2149	1141.4	1297.6	-30.422	1165.3	1164.8	-24.567	1129.2	901.91	-135.23	1124.7	894.36	113.93	1071.3	1343.2	134.43	1077.7	1175.2	190.92	1236.3	805.97	202.47	1246.4	740.14	251.58	1057.2	1345.2	-180.63	1019.5	1175.5	-243.62	949.26	899.24	-302	977.45	777.62	-312.87	926.45	726.35	-344.4	1061.7	552.17	148.93	1117.3	639.31	134.88	962.19	311.84	97.277	1108.7	734.35	-204.07	1153.7	573.19	-162.34	1184.9	673.56	-169.65	1130.6	652.48	-185.39	1194	440.58	-135.99	1228.1	344.14	-64.403	1208.1	175.12	-48.842	1207.5	255.24	-117.9	1215.5	258.86	-57.396	1346.3	28.331	-40.142	886.66	268.68	91.548	1185.3	781.46	240.23	1046.9	1513	-112.5	1032.8	403.88	127.89	1015.3	401.62	-1.4064	810.75	228.65	83.629	675.86	101.86	101.94	722.44	36.659	59.153	1154.8	897.01	242.91	911.15	786.08	-292.89	963.7	1029.4	-263.59	1066	634.41	162.04	704.51	81.248	23.77	861.78	308.97	131.99	712.46	215.31	21.226	1169.3	433.51	-6.2216	950.7	947.72	-59.678	1074	720.12	179.43	1077.7	1008.4	228.2	961.2	1007.7	-191.86	1261.4	23.713	-100.52	1050.3	1528.2	32.396	952.09	1278.3	50.086	952.83	939.53	40.297	688.42	220.39	99.825	651.42	257.6	57.376	1028.2	1401.1	-33.275	955.59	1188.6	-15.346	1162.6	83.581	-11.744	1290.1	29.827	-16.372	1044.7	999.04	155.57	1098.1	35.495	-54.024	1156.6	62.929	-93.513
387	1.935	1204.5	1561.7	-93.315	1204.8	1568.3	5.8751	1148.7	1298.8	-30.215	1172.5	1165.9	-24.372	1136.6	903.23	-135.85	1132.2	895.72	113.55	1078.4	1344.3	134.5	1084.8	1176.2	190.76	1239.9	804.44	202.79	1249	738.76	252.26	1064.9	1346.5	-180.53	1028.9	1176.5	-243.82	962.67	899.48	-303.55	992.85	778.46	-314.67	942.85	726.81	-347	1074.7	552.96	148.76	1128.8	641.13	134.45	977.65	312.68	96.553	1115.2	735.17	-204.34	1158.3	573.47	-162.73	1190.7	673.48	-170.05	1136.1	653.03	-185.69	1197.1	440.22	-136.44	1230.6	343.56	-65.011	1209	174.72	-49.199	1208.9	254.78	-118.3	1217.3	258.38	-57.858	1346.4	28.2	-40.245	901.66	270.23	90.801	1188.5	780.93	240.7	1054.8	1514.4	-112.7	1048.4	404.41	127.7	1031.6	401.81	-1.9755	825.35	230.89	82.925	691.18	105.52	102.41	737.88	39.221	60.594	1159.8	897.02	242.91	926.31	785.73	-295.04	974.83	1029.8	-264.68	1077.6	635.24	161.79	720.05	84.11	24.584	877.26	310.53	131.59	726.98	218.33	20.568	1172.6	433.49	-6.6247	958.1	948.73	-59.884	1084.1	721.19	178.94	1084.3	1009.4	227.73	972.21	1007.9	-192.92	1261.3	23.773	-100.7	1058.3	1530	32.247	959.26	1279.4	50.047	960.2	940.49	40.022	702.86	223.67	99.12	665.46	260.46	56.394	1035.5	1402.3	-33.182	962.83	1189.7	-15.491	1162.8	83.618	-11.809	1290	29.88	-16.435	1051.7	1000.2	154.83	1098.1	35.51	-54.078	1156.5	62.863	-93.606
388	1.94	1212.5	1562.2	-93.579	1213	1569.2	5.5716	1155.8	1300.1	-29.983	1179.6	1167.2	-24.144	1143.9	904.53	-136.41	1139.6	897.2	113.21	1085.4	1345.5	134.61	1091.8	1177.3	190.65	1243.4	803.01	203.1	1251.4	737.45	252.88	1072.5	1347.9	-180.41	1038.2	1177.6	-244	976.17	899.82	-305.03	1008.4	779.45	-316.37	959.44	727.39	-349.46	1087.5	554	148.64	1140.2	643.14	134.13	993.25	313.74	95.882	1121.6	736	-204.56	1162.7	573.76	-163.09	1196.3	673.37	-170.36	1141.4	653.59	-185.94	1199.9	439.87	-136.86	1232.9	343	-65.605	1209.9	174.35	-49.557	1210.1	254.35	-118.69	1218.9	257.93	-58.311	1346.4	28.105	-40.369	916.89	271.85	90.095	1191.6	780.5	241.2	1062.6	1515.8	-112.86	1064.1	405.22	127.54	1047.9	402.38	-2.4818	840.26	233.05	82.242	707.29	108.83	102.8	754.38	41.813	61.837	1164.7	897.1	242.94	941.63	785.49	-297.09	985.97	1030.4	-265.72	1089	636.3	161.66	736.37	86.778	25.272	892.87	312.16	131.15	741.88	221.08	19.867	1175.7	433.47	-6.9981	965.5	949.79	-60.161	1093.9	722.45	178.53	1090.9	1010.4	227.29	983.24	1008.2	-193.94	1261.2	23.835	-100.84	1066.2	1531.8	32.138	966.36	1280.6	49.985	967.56	941.51	39.686	717.65	226.59	98.381	679.71	262.82	55.382	1042.7	1403.6	-33.057	970.03	1190.9	-15.651	1163	83.653	-11.863	1290	29.948	-16.494	1058.7	1001.5	154.16	1098.1	35.533	-54.111	1156.5	62.802	-93.68
389	1.945	1220.5	1562.8	-93.803	1221.1	1570.1	5.3073	1162.9	1301.4	-29.736	1186.8	1168.5	-23.891	1151.3	905.81	-136.91	1146.9	898.81	112.92	1092.2	1346.7	134.75	1098.6	1178.4	190.59	1246.8	801.68	203.42	1253.8	736.22	253.46	1080	1349.4	-180.26	1047.5	1178.8	-244.15	989.75	900.27	-306.44	1024.1	780.6	-317.97	976.2	728.09	-351.79	1100.3	555.27	148.58	1151.5	645.35	133.93	1009	314.98	95.273	1127.9	736.84	-204.71	1167	574.05	-163.42	1201.9	673.26	-170.57	1146.6	654.15	-186.16	1202.5	439.52	-137.22	1235.1	342.48	-66.172	1210.8	174.01	-49.906	1211.2	253.95	-119.05	1220.3	257.5	-58.745	1346.5	28.03	-40.509	932.32	273.53	89.438	1194.7	780.18	241.73	1070.4	1517.3	-112.99	1079.7	406.31	127.42	1064	403.3	-2.9212	855.48	235.13	81.592	724.11	111.76	103.13	771.83	44.39	62.886	1169.6	897.25	243	957.1	785.37	-299.05	997.12	1031	-266.71	1100.3	637.6	161.66	753.4	89.223	25.838	908.58	313.85	130.69	757.13	223.53	19.132	1178.4	433.43	-7.3397	972.91	950.91	-60.5	1103.7	723.87	178.22	1097.4	1011.4	226.89	994.3	1008.6	-194.91	1261.2	23.895	-100.95	1074.2	1533.7	32.071	973.4	1281.8	49.899	974.9	942.61	39.301	732.75	229.13	97.622	694.16	264.66	54.353	1049.9	1404.9	-32.903	977.21	1192.2	-15.831	1163.2	83.687	-11.906	1289.9	30.021	-16.545	1065.5	1002.7	153.56	1098.1	35.568	-54.127	1156.5	62.749	-93.736
390	1.95	1228.5	1563.3	-93.986	1229.3	1570.9	5.0846	1170	1302.8	-29.481	1193.9	1169.9	-23.619	1158.7	907.06	-137.34	1154.3	900.51	112.67	1099	1347.9	134.92	1105.4	1179.5	190.57	1250.1	800.46	203.75	1256.2	735.07	253.99	1087.4	1350.9	-180.1	1056.6	1180	-244.29	1003.4	900.82	-307.77	1039.9	781.9	-319.46	993.14	728.93	-353.96	1112.9	556.75	148.57	1162.7	647.73	133.84	1024.8	316.4	94.729	1134.3	737.67	-204.81	1171.3	574.34	-163.7	1207.4	673.14	-170.68	1151.8	654.72	-186.33	1205	439.2	-137.54	1237	341.99	-66.7	1211.6	173.69	-50.235	1212.2	253.57	-119.4	1221.7	257.1	-59.15	1346.6	27.96	-40.662	947.94	275.25	88.838	1197.7	779.96	242.29	1078.1	1518.9	-113.09	1095.3	407.66	127.32	1080.1	404.53	-3.2913	870.97	237.08	80.984	741.57	114.31	103.38	790.16	46.909	63.753	1174.3	897.46	243.1	972.72	785.38	-300.9	1008.3	1031.7	-267.66	1111.4	639.12	161.79	771.09	91.423	26.289	924.38	315.56	130.21	772.71	225.66	18.375	1180.9	433.38	-7.6492	980.32	952.09	-60.89	1113.3	725.45	177.99	1103.7	1012.4	226.52	1005.4	1009	-195.83	1261.1	23.95	-101.03	1082.1	1535.7	32.043	980.39	1283	49.785	982.24	943.77	38.877	748.16	231.26	96.854	708.82	265.98	53.318	1056.9	1406.3	-32.724	984.36	1193.4	-16.034	1163.3	83.725	-11.938	1289.9	30.092	-16.586	1072.3	1003.9	153.02	1098.1	35.62	-54.128	1156.4	62.708	-93.776
